<svg width="139" height="80" viewBox="0 0 139 80" fill="none" xmlns="http://www.w3.org/2000/svg">
<path d="M40.6616 72.76L7.90162 40L40.6616 7.24L64.62 31.2H71.8616L40.6616 0L0.661621 40L40.6616 80L70.2616 50.4H63.02L40.6616 72.76Z" fill="white"/>
<path d="M34.7592 50.4H54.2616L40.6616 64L16.6616 40L40.6616 16L55.8616 31.2H34.7592V50.4Z" fill="white"/>
<path d="M38.3288 47.7759C38.188 47.7759 38.0728 47.7311 37.9832 47.6415C37.8936 47.5519 37.8488 47.4367 37.8488 47.2959V34.8159C37.8488 34.6751 37.8936 34.5599 37.9832 34.4703C38.0728 34.3807 38.188 34.3359 38.3288 34.3359H40.8632C40.9912 34.3359 41.1032 34.3807 41.1992 34.4703C41.2952 34.5599 41.3432 34.6751 41.3432 34.8159V44.8767H47.1416C47.2824 44.8767 47.4008 44.9247 47.4968 45.0207C47.5928 45.1167 47.6408 45.2351 47.6408 45.3759V47.2959C47.6408 47.4367 47.5928 47.5519 47.4968 47.6415C47.4008 47.7311 47.2824 47.7759 47.1416 47.7759H38.3288Z" fill="white"/>
<path d="M54.3224 47.968C53.0424 47.968 51.98 47.7856 51.1352 47.4208C50.2904 47.056 49.6504 46.5792 49.2152 45.9904C48.78 45.4016 48.5496 44.7744 48.524 44.1088C48.524 44.0064 48.5656 43.9136 48.6488 43.8304C48.732 43.7472 48.8312 43.7056 48.9464 43.7056H51.3656C51.5448 43.7056 51.6824 43.7376 51.7784 43.8016C51.8744 43.8656 51.9608 43.9488 52.0376 44.0512C52.14 44.2432 52.284 44.4288 52.4696 44.608C52.6552 44.7872 52.8984 44.9312 53.1992 45.04C53.5 45.1488 53.8744 45.2032 54.3224 45.2032C55.0648 45.2032 55.6248 45.088 56.0024 44.8576C56.38 44.6272 56.5688 44.3136 56.5688 43.9168C56.5688 43.6352 56.4664 43.4016 56.2616 43.216C56.0568 43.0304 55.7272 42.864 55.2728 42.7168C54.8184 42.5696 54.2136 42.4192 53.4584 42.2656C52.4856 42.0608 51.6568 41.7952 50.972 41.4688C50.2872 41.1424 49.7656 40.7136 49.4072 40.1824C49.0488 39.6512 48.8696 38.9888 48.8696 38.1952C48.8696 37.4016 49.0904 36.7168 49.532 36.1024C49.9736 35.488 50.5912 35.008 51.3848 34.6624C52.1784 34.3168 53.1192 34.144 54.2072 34.144C55.0904 34.144 55.868 34.2592 56.54 34.4896C57.212 34.72 57.7784 35.0272 58.2392 35.4112C58.7 35.7952 59.0489 36.2016 59.2857 36.6304C59.5225 37.0592 59.6472 37.4784 59.66 37.888C59.66 37.9904 59.6216 38.0832 59.5448 38.1664C59.468 38.2496 59.372 38.2912 59.2568 38.2912H56.7224C56.5816 38.2912 56.46 38.2656 56.3576 38.2144C56.2552 38.1632 56.1656 38.08 56.0888 37.9648C56.012 37.6832 55.8104 37.4368 55.484 37.2256C55.1576 37.0144 54.732 36.9088 54.2072 36.9088C53.644 36.9088 53.2056 37.008 52.892 37.2064C52.5784 37.4048 52.4216 37.7088 52.4216 38.1184C52.4216 38.3744 52.508 38.5984 52.6809 38.7904C52.8537 38.9824 53.1416 39.1488 53.5448 39.2896C53.948 39.4304 54.5016 39.5776 55.2056 39.7312C56.3705 39.9488 57.3112 40.2208 58.028 40.5472C58.7448 40.8736 59.2696 41.296 59.6024 41.8144C59.9352 42.3328 60.1016 42.9824 60.1016 43.7632C60.1016 44.6336 59.8552 45.3856 59.3624 46.0192C58.8696 46.6528 58.188 47.136 57.3176 47.4688C56.4472 47.8016 55.4488 47.968 54.3224 47.968Z" fill="white"/>
<path d="M67.5304 47.968C66.3144 47.968 65.2744 47.7696 64.4104 47.3728C63.5464 46.976 62.8744 46.3936 62.3944 45.6256C61.9144 44.8576 61.6488 43.904 61.5976 42.7648C61.5848 42.24 61.5784 41.6768 61.5784 41.0752C61.5784 40.4736 61.5848 39.8976 61.5976 39.3472C61.6488 38.2336 61.9176 37.2896 62.404 36.5152C62.8904 35.7408 63.5688 35.152 64.4392 34.7488C65.3096 34.3456 66.34 34.144 67.5304 34.144C68.3752 34.144 69.156 34.2496 69.8728 34.4608C70.5896 34.672 71.2168 34.9792 71.7544 35.3824C72.292 35.7856 72.7112 36.272 73.012 36.8416C73.3128 37.4112 73.4696 38.0544 73.4824 38.7712C73.4952 38.8864 73.46 38.9824 73.3768 39.0592C73.2936 39.136 73.1944 39.1744 73.0792 39.1744H70.4872C70.3208 39.1744 70.1928 39.1392 70.1032 39.0688C70.0136 38.9984 69.9368 38.8672 69.8728 38.6752C69.6936 37.9968 69.4024 37.5328 68.9992 37.2832C68.596 37.0336 68.1 36.9088 67.5112 36.9088C66.8072 36.9088 66.2504 37.104 65.8408 37.4944C65.4312 37.8848 65.2072 38.5344 65.1688 39.4432C65.1304 40.4928 65.1304 41.568 65.1688 42.6688C65.2072 43.5776 65.4312 44.2272 65.8408 44.6176C66.2504 45.008 66.8072 45.2032 67.5112 45.2032C68.1 45.2032 68.5992 45.0752 69.0088 44.8192C69.4184 44.5632 69.7064 44.1024 69.8728 43.4368C69.924 43.2448 69.9976 43.1136 70.0936 43.0432C70.1896 42.9728 70.3208 42.9376 70.4872 42.9376H73.0792C73.1944 42.9376 73.2936 42.976 73.3768 43.0528C73.46 43.1296 73.4952 43.2256 73.4824 43.3408C73.4696 44.0576 73.3128 44.7008 73.012 45.2704C72.7112 45.84 72.292 46.3264 71.7544 46.7296C71.2168 47.1328 70.5896 47.44 69.8728 47.6512C69.156 47.8624 68.3752 47.968 67.5304 47.968Z" fill="white"/>
<path d="M82.428 47.968C81.3272 47.968 80.4024 47.7536 79.6536 47.3248C78.9048 46.896 78.3352 46.2976 77.9448 45.5296C77.5544 44.7616 77.34 43.8784 77.3016 42.88C77.2888 42.304 77.2824 41.696 77.2824 41.056C77.2824 40.416 77.2888 39.808 77.3016 39.232C77.34 38.2208 77.5544 37.3344 77.9448 36.5728C78.3352 35.8112 78.908 35.216 79.6632 34.7872C80.4184 34.3584 81.34 34.144 82.428 34.144C83.3112 34.144 84.0664 34.2752 84.6936 34.5376C85.3208 34.8 85.8328 35.1264 86.2296 35.5168C86.6264 35.9072 86.9208 36.3008 87.1128 36.6976C87.3048 37.0944 87.4072 37.4272 87.42 37.696C87.4328 37.8112 87.4008 37.904 87.324 37.9744C87.2472 38.0448 87.1448 38.08 87.0168 38.08H86.5944C86.4792 38.08 86.396 38.0512 86.3448 37.9936C86.2936 37.936 86.2424 37.8368 86.1912 37.696C86.0632 37.2992 85.8488 36.9184 85.548 36.5536C85.2472 36.1888 84.844 35.888 84.3384 35.6512C83.8328 35.4144 83.196 35.296 82.428 35.296C81.2888 35.296 80.364 35.6064 79.6536 36.2272C78.9432 36.848 78.5624 37.8816 78.5112 39.328C78.4728 40.48 78.4728 41.632 78.5112 42.784C78.5624 44.2176 78.9432 45.248 79.6536 45.8752C80.364 46.5024 81.2888 46.816 82.428 46.816C83.1832 46.816 83.8616 46.672 84.4632 46.384C85.0648 46.096 85.5384 45.6544 85.884 45.0592C86.2296 44.464 86.4024 43.7056 86.4024 42.784V41.8048H83.0616C82.9336 41.8048 82.8312 41.7632 82.7544 41.68C82.6776 41.5968 82.6392 41.4912 82.6392 41.3632V41.0944C82.6392 40.9536 82.6776 40.8448 82.7544 40.768C82.8312 40.6912 82.9336 40.6528 83.0616 40.6528H87.1704C87.3112 40.6528 87.42 40.6912 87.4968 40.768C87.5736 40.8448 87.612 40.9536 87.612 41.0944V42.784C87.612 43.808 87.4104 44.7104 87.0072 45.4912C86.604 46.272 86.0152 46.88 85.2408 47.3152C84.4664 47.7504 83.5288 47.968 82.428 47.968Z" fill="white"/>
<path d="M90.9912 47.7759C90.8632 47.7759 90.7608 47.7375 90.684 47.6607C90.6072 47.5839 90.5688 47.4815 90.5688 47.3535V34.7775C90.5688 34.6367 90.6072 34.5279 90.684 34.4511C90.7608 34.3743 90.8632 34.3359 90.9912 34.3359H95.4648C96.8088 34.3359 97.8808 34.6559 98.6808 35.2959C99.4808 35.9359 99.8808 36.9087 99.8808 38.2143C99.8808 39.2383 99.6248 40.0575 99.1128 40.6719C98.6008 41.2863 97.8904 41.7023 96.9816 41.9199L100.073 47.1807C100.111 47.2575 100.13 47.3279 100.13 47.3919C100.13 47.4943 100.092 47.5839 100.015 47.6607C99.9384 47.7375 99.8488 47.7759 99.7464 47.7759H99.516C99.3112 47.7759 99.1576 47.7215 99.0552 47.6127C98.9528 47.5039 98.8632 47.3855 98.7864 47.2575L95.7336 42.0927H91.7784V47.3535C91.7784 47.4815 91.74 47.5839 91.6632 47.6607C91.5864 47.7375 91.4776 47.7759 91.3368 47.7759H90.9912ZM91.7784 40.9407H95.3688C96.4824 40.9407 97.3112 40.7135 97.8552 40.2591C98.3992 39.8047 98.6712 39.1231 98.6712 38.2143C98.6712 37.3055 98.3992 36.6239 97.8552 36.1695C97.3112 35.7151 96.4824 35.4879 95.3688 35.4879H91.7784V40.9407Z" fill="white"/>
<path d="M107.407 47.968C106.345 47.968 105.442 47.7792 104.7 47.4016C103.958 47.024 103.388 46.4416 102.991 45.6544C102.594 44.8672 102.377 43.872 102.338 42.6688C102.326 42.0928 102.319 41.5552 102.319 41.056C102.319 40.5568 102.326 40.0192 102.338 39.4432C102.377 38.2528 102.607 37.264 103.03 36.4768C103.452 35.6896 104.038 35.104 104.786 34.72C105.535 34.336 106.409 34.144 107.407 34.144C108.406 34.144 109.279 34.336 110.028 34.72C110.777 35.104 111.366 35.6896 111.794 36.4768C112.223 37.264 112.45 38.2528 112.476 39.4432C112.502 40.0192 112.514 40.5568 112.514 41.056C112.514 41.5552 112.502 42.0928 112.476 42.6688C112.45 43.872 112.236 44.8672 111.833 45.6544C111.43 46.4416 110.857 47.024 110.114 47.4016C109.372 47.7792 108.47 47.968 107.407 47.968ZM107.407 46.816C108.508 46.816 109.414 46.4832 110.124 45.8176C110.834 45.152 111.215 44.0704 111.266 42.5728C111.292 41.9968 111.305 41.4912 111.305 41.056C111.305 40.6208 111.292 40.1152 111.266 39.5392C111.241 38.5408 111.058 37.728 110.719 37.1008C110.38 36.4736 109.926 36.016 109.356 35.728C108.786 35.44 108.137 35.296 107.407 35.296C106.678 35.296 106.047 35.44 105.478 35.728C104.908 36.016 104.454 36.4736 104.114 37.1008C103.775 37.728 103.586 38.5408 103.548 39.5392C103.535 40.1152 103.529 40.6208 103.529 41.056C103.529 41.4912 103.535 41.9968 103.548 42.5728C103.599 44.0704 103.983 45.152 104.7 45.8176C105.417 46.4832 106.319 46.816 107.407 46.816Z" fill="white"/>
<path d="M120.406 47.9679C119.369 47.9679 118.482 47.7759 117.746 47.3919C117.01 47.0079 116.444 46.4191 116.047 45.6255C115.65 44.8319 115.452 43.8143 115.452 42.5727V34.7775C115.452 34.6367 115.49 34.5279 115.567 34.4511C115.644 34.3743 115.746 34.3359 115.874 34.3359H116.22C116.361 34.3359 116.47 34.3743 116.546 34.4511C116.623 34.5279 116.662 34.6367 116.662 34.7775V42.6303C116.662 44.0639 116.998 45.1199 117.67 45.7983C118.342 46.4767 119.254 46.8159 120.406 46.8159C121.558 46.8159 122.45 46.4767 123.122 45.7983C123.794 45.1199 124.13 44.0639 124.13 42.6303V34.7775C124.13 34.6367 124.172 34.5279 124.255 34.4511C124.338 34.3743 124.444 34.3359 124.572 34.3359H124.918C125.046 34.3359 125.148 34.3743 125.225 34.4511C125.302 34.5279 125.34 34.6367 125.34 34.7775V42.5727C125.34 43.8143 125.145 44.8319 124.754 45.6255C124.364 46.4191 123.804 47.0079 123.074 47.3919C122.345 47.7759 121.455 47.9679 120.406 47.9679Z" fill="white"/>
<path d="M129.257 47.7759C129.129 47.7759 129.026 47.7375 128.95 47.6607C128.873 47.5839 128.834 47.4815 128.834 47.3535V34.7775C128.834 34.6367 128.873 34.5279 128.95 34.4511C129.026 34.3743 129.129 34.3359 129.257 34.3359H133.922C134.818 34.3359 135.596 34.4863 136.255 34.7871C136.914 35.0879 137.426 35.5327 137.791 36.1215C138.156 36.7103 138.338 37.4399 138.338 38.3103C138.338 39.1807 138.156 39.9103 137.791 40.4991C137.426 41.0879 136.914 41.5327 136.255 41.8335C135.596 42.1343 134.818 42.2847 133.922 42.2847H130.044V47.3535C130.044 47.4815 130.006 47.5839 129.929 47.6607C129.852 47.7375 129.743 47.7759 129.602 47.7759H129.257ZM130.044 41.1327H133.826C134.94 41.1327 135.769 40.8895 136.313 40.4031C136.857 39.9167 137.129 39.2191 137.129 38.3103C137.129 37.4015 136.857 36.7039 136.313 36.2175C135.769 35.7311 134.94 35.4879 133.826 35.4879H130.044V41.1327Z" fill="white"/>
</svg>
