<svg width="25" height="24" viewBox="0 0 25 24" fill="none" xmlns="http://www.w3.org/2000/svg">
<path d="M20.1069 6.99482C20.0307 6.69695 19.8152 6.47221 19.5684 6.40288C19.1299 6.28062 17.001 6 12.501 6C8.00098 6 5.87252 6.28073 5.43225 6.40323C5.18776 6.47123 4.9723 6.69593 4.8951 6.99482C4.7863 7.41923 4.50098 9.19595 4.50098 12C4.50098 14.804 4.7863 16.5808 4.8954 17.0064C4.97126 17.3031 5.18676 17.5278 5.43251 17.5968C5.87252 17.7193 8.00098 18 12.501 18C17.001 18 19.1299 17.7194 19.5697 17.5968C19.8142 17.5288 20.0297 17.3041 20.1069 17.0052C20.2157 16.5808 20.501 14.8 20.501 12C20.501 9.2 20.2157 7.41923 20.1069 6.99482ZM22.0442 6.49818C22.501 8.28 22.501 12 22.501 12C22.501 12 22.501 15.72 22.0442 17.5018C21.7897 18.4873 21.047 19.2618 20.1056 19.5236C18.3971 20 12.501 20 12.501 20C12.501 20 6.60837 20 4.89637 19.5236C3.95146 19.2582 3.20879 18.4836 2.95774 17.5018C2.50098 15.72 2.50098 12 2.50098 12C2.50098 12 2.50098 8.28 2.95774 6.49818C3.21227 5.51273 3.95495 4.73818 4.89637 4.47636C6.60837 4 12.501 4 12.501 4C12.501 4 18.3971 4 20.1056 4.47636C21.0505 4.74182 21.7932 5.51636 22.0442 6.49818ZM10.501 15.5V8.5L16.501 12L10.501 15.5Z" fill="#111111"/>
</svg>
