<svg width="124" height="72" viewBox="0 0 124 72" fill="none" xmlns="http://www.w3.org/2000/svg">
<path d="M48.0728 53.0098C43.5052 57.5792 37.4296 60.0945 30.9685 60.0945C24.5074 60.0945 18.4337 57.5792 13.8643 53.0098C9.29671 48.4403 6.77954 42.3666 6.77954 35.9055C6.77954 29.4444 9.29671 23.3707 13.8643 18.8013C18.4337 14.2318 24.5074 11.7166 30.9685 11.7166C37.4296 11.7166 43.5052 14.2318 48.0728 18.8013C50.057 20.7855 51.652 23.0532 52.8236 25.5118H59.3698C55.1329 13.9314 44.0154 5.66931 30.9685 5.66931C14.2706 5.66931 0.7323 19.2057 0.7323 35.9055C0.7323 52.6054 14.2706 66.1418 30.9685 66.1418C43.2936 66.1418 53.897 58.7679 58.6044 48.189H51.8164C50.7902 49.9257 49.5373 51.5452 48.0728 53.0098Z" fill="white"/>
<path d="M29.0977 48.1889H45.3289C41.8649 52.2368 36.7153 54.8031 30.9686 54.8031C20.5333 54.8031 12.0709 46.3426 12.0709 35.9055C12.0709 25.4683 20.5333 17.0078 30.9686 17.0078C37.5657 17.0078 43.3749 20.3886 46.7519 25.5117H29.0977V48.1889Z" fill="white"/>
<path d="M33.5273 45.0898C33.361 45.0898 33.2249 45.0369 33.1191 44.9311C33.0132 44.8253 32.9603 44.6892 32.9603 44.5229V29.7827C32.9603 29.6165 33.0132 29.4804 33.1191 29.3746C33.2249 29.2687 33.361 29.2158 33.5273 29.2158H36.5206C36.6718 29.2158 36.8041 29.2687 36.9175 29.3746C37.0309 29.4804 37.0876 29.6165 37.0876 29.7827V41.6656H43.9361C44.1024 41.6656 44.2422 41.7223 44.3556 41.8357C44.469 41.949 44.5257 42.0889 44.5257 42.2552V44.5229C44.5257 44.6892 44.469 44.8253 44.3556 44.9311C44.2422 45.0369 44.1024 45.0898 43.9361 45.0898H33.5273Z" fill="white"/>
<path d="M52.4174 45.3166C50.9055 45.3166 49.6507 45.1011 48.6529 44.6703C47.6551 44.2394 46.8992 43.6763 46.3852 42.9808C45.8712 42.2854 45.5991 41.5446 45.5688 40.7585C45.5688 40.6375 45.618 40.5279 45.7163 40.4296C45.8145 40.3314 45.9317 40.2822 46.0677 40.2822H48.9251C49.1367 40.2822 49.2992 40.32 49.4126 40.3956C49.526 40.4712 49.6281 40.5695 49.7188 40.6904C49.8397 40.9172 50.0098 41.1364 50.229 41.3481C50.4482 41.5597 50.7355 41.7298 51.0907 41.8583C51.446 41.9868 51.8882 42.0511 52.4174 42.0511C53.2942 42.0511 53.9556 41.915 54.4016 41.6429C54.8476 41.3707 55.0706 41.0003 55.0706 40.5317C55.0706 40.1991 54.9496 39.9232 54.7077 39.704C54.4659 39.4848 54.0766 39.2882 53.5399 39.1144C53.0032 38.9405 52.2889 38.7629 51.3969 38.5814C50.2479 38.3396 49.269 38.0259 48.4602 37.6404C47.6514 37.2548 47.0353 36.7484 46.612 36.121C46.1887 35.4936 45.977 34.7112 45.977 33.7739C45.977 32.8366 46.2378 32.0278 46.7594 31.3021C47.281 30.5764 48.0104 30.0095 48.9477 29.6013C49.8851 29.1931 50.9963 28.989 52.2813 28.989C53.3244 28.989 54.2429 29.1251 55.0366 29.3972C55.8303 29.6693 56.4992 30.0322 57.0435 30.4857C57.5877 30.9393 57.9997 31.4193 58.2794 31.9257C58.5591 32.4322 58.7065 32.9273 58.7216 33.4111C58.7216 33.532 58.6763 33.6416 58.5855 33.7399C58.4948 33.8382 58.3815 33.8873 58.2454 33.8873H55.252C55.0857 33.8873 54.9421 33.857 54.8211 33.7966C54.7002 33.7361 54.5944 33.6378 54.5037 33.5018C54.4129 33.1692 54.1748 32.8781 53.7893 32.6287C53.4038 32.3793 52.9011 32.2545 52.2813 32.2545C51.6161 32.2545 51.0983 32.3717 50.7279 32.606C50.3575 32.8404 50.1723 33.1994 50.1723 33.6832C50.1723 33.9855 50.2744 34.2501 50.4785 34.4769C50.6826 34.7037 51.0227 34.9002 51.4989 35.0665C51.9751 35.2328 52.629 35.4067 53.4605 35.5881C54.8363 35.8451 55.9474 36.1663 56.7941 36.5518C57.6407 36.9374 58.2605 37.4363 58.6536 38.0485C59.0466 38.6608 59.2432 39.4281 59.2432 40.3503C59.2432 41.3783 58.9522 42.2665 58.3701 43.0148C57.7881 43.7632 56.983 44.3339 55.955 44.727C54.927 45.12 53.7478 45.3166 52.4174 45.3166Z" fill="white"/>
<path d="M68.0173 45.3166C66.5811 45.3166 65.3528 45.0822 64.3323 44.6136C63.3118 44.1449 62.5181 43.457 61.9512 42.55C61.3843 41.6429 61.0706 40.5166 61.0101 39.1711C60.995 38.5512 60.9874 37.886 60.9874 37.1755C60.9874 36.4649 60.995 35.7846 61.0101 35.1345C61.0706 33.8193 61.3881 32.7043 61.9625 31.7896C62.537 30.875 63.3383 30.1796 64.3663 29.7033C65.3944 29.2271 66.6114 28.989 68.0173 28.989C69.0151 28.989 69.9373 29.1137 70.784 29.3632C71.6306 29.6126 72.3714 29.9755 73.0063 30.4517C73.6413 30.9279 74.1364 31.5024 74.4917 32.1752C74.8469 32.8479 75.0321 33.6076 75.0473 34.4542C75.0624 34.5903 75.0208 34.7037 74.9225 34.7944C74.8243 34.8851 74.7071 34.9304 74.571 34.9304H71.5096C71.3131 34.9304 71.1619 34.8889 71.0561 34.8057C70.9503 34.7226 70.8595 34.5676 70.784 34.3408C70.5723 33.5396 70.2284 32.9915 69.7521 32.6967C69.2759 32.4019 68.6901 32.2545 67.9947 32.2545C67.1632 32.2545 66.5055 32.4851 66.0218 32.9462C65.538 33.4073 65.2734 34.1745 65.2281 35.2479C65.1827 36.4876 65.1827 37.7575 65.2281 39.0577C65.2734 40.1311 65.538 40.8983 66.0218 41.3594C66.5055 41.8205 67.1632 42.0511 67.9947 42.0511C68.6901 42.0511 69.2797 41.8999 69.7635 41.5975C70.2473 41.2952 70.5874 40.7509 70.784 39.9648C70.8444 39.738 70.9314 39.583 71.0447 39.4999C71.1581 39.4167 71.3131 39.3752 71.5096 39.3752H74.571C74.7071 39.3752 74.8243 39.4205 74.9225 39.5112C75.0208 39.6019 75.0624 39.7153 75.0473 39.8514C75.0321 40.698 74.8469 41.4577 74.4917 42.1304C74.1364 42.8032 73.6413 43.3777 73.0063 43.8539C72.3714 44.3301 71.6306 44.693 70.784 44.9424C69.9373 45.1918 69.0151 45.3166 68.0173 45.3166Z" fill="white"/>
<path d="M79.2029 35.9054C79.1424 35.9054 79.0914 35.8847 79.0479 35.8412C79.0063 35.7996 78.9836 35.7467 78.9836 35.6862V29.7807C78.9836 29.7146 79.0044 29.6598 79.0479 29.6182C79.0895 29.5766 79.1424 29.554 79.2029 29.554H81.4158C82.0262 29.554 82.5307 29.6484 82.9257 29.8355C83.3225 30.0226 83.6211 30.3004 83.8233 30.6708C84.0255 31.0393 84.1295 31.491 84.137 32.022C84.1484 32.2884 84.1559 32.5247 84.1559 32.7288C84.1559 32.9328 84.1503 33.1672 84.137 33.428C84.1257 33.9911 84.0218 34.4541 83.829 34.8207C83.6362 35.1873 83.3433 35.4595 82.954 35.6371C82.5647 35.8147 82.0658 35.9054 81.4611 35.9054H79.2029ZM80.246 34.8623H81.4158C81.754 34.8623 82.0299 34.8132 82.2416 34.7168C82.4532 34.6204 82.6082 34.4636 82.7084 34.25C82.8085 34.0346 82.8614 33.753 82.8671 33.4015C82.8728 33.2201 82.8784 33.0614 82.8803 32.9253C82.8841 32.7892 82.8841 32.6532 82.8803 32.5171C82.8766 32.381 82.8728 32.2261 82.8671 32.0503C82.8558 31.5552 82.731 31.1886 82.4948 30.9524C82.2586 30.7162 81.8844 30.599 81.3704 30.599H80.246V34.8623Z" fill="white"/>
<path d="M85.4334 30.4081C85.3673 30.4081 85.3143 30.3892 85.2746 30.3496C85.235 30.3099 85.2161 30.257 85.2161 30.1908V29.537C85.2161 29.4765 85.235 29.4255 85.2746 29.382C85.3143 29.3404 85.3673 29.3177 85.4334 29.3177H86.2592C86.3254 29.3177 86.3802 29.3385 86.4217 29.382C86.4633 29.4236 86.486 29.4765 86.486 29.537V30.1908C86.486 30.257 86.4652 30.3099 86.4217 30.3496C86.3802 30.3892 86.3254 30.4081 86.2592 30.4081H85.4334ZM85.4693 35.9055C85.4088 35.9055 85.3578 35.8847 85.3143 35.8412C85.2728 35.7996 85.2501 35.7467 85.2501 35.6862V31.404C85.2501 31.3436 85.2709 31.2925 85.3143 31.2491C85.3559 31.2075 85.4088 31.1848 85.4693 31.1848H86.2214C86.2876 31.1848 86.3405 31.2056 86.3802 31.2491C86.4199 31.2907 86.4387 31.3436 86.4387 31.404V35.6862C86.4387 35.7467 86.418 35.7977 86.3802 35.8412C86.3405 35.8828 86.2876 35.9055 86.2214 35.9055H85.4693Z" fill="white"/>
<path d="M89.778 37.901C89.3357 37.901 88.9729 37.8444 88.6894 37.7291C88.406 37.6138 88.1811 37.4759 88.0186 37.3114C87.8561 37.1489 87.7389 36.9864 87.669 36.8258C87.5991 36.6651 87.5613 36.5404 87.5556 36.4497C87.5499 36.3892 87.5688 36.3363 87.6142 36.291C87.6595 36.2456 87.7124 36.2229 87.7729 36.2229H88.5628C88.6233 36.2229 88.6724 36.2362 88.7084 36.2645C88.7443 36.291 88.7745 36.342 88.7991 36.4138C88.835 36.4932 88.8841 36.5763 88.9446 36.667C89.005 36.7577 89.0976 36.8352 89.2205 36.8976C89.3433 36.9599 89.5153 36.9921 89.7326 36.9921C89.9613 36.9921 90.1559 36.9581 90.3128 36.8919C90.4696 36.8258 90.5887 36.7143 90.6718 36.5555C90.7531 36.3987 90.7946 36.1814 90.7946 35.9017V35.2856C90.6491 35.4614 90.4639 35.6031 90.2372 35.7127C90.0104 35.8223 89.7307 35.8752 89.3981 35.8752C89.0655 35.8752 88.7896 35.8223 88.5553 35.7165C88.3191 35.6107 88.1225 35.4633 87.9657 35.2724C87.8088 35.0815 87.6898 34.8566 87.6066 34.5959C87.5254 34.3351 87.4781 34.0478 87.4668 33.7341C87.4611 33.5716 87.4611 33.4072 87.4668 33.2447C87.4781 32.9423 87.5235 32.6607 87.6028 32.4018C87.6822 32.141 87.8013 31.9143 87.9619 31.7177C88.1225 31.5212 88.321 31.3681 88.5553 31.2604C88.7915 31.1508 89.0731 31.0979 89.3981 31.0979C89.742 31.0979 90.0331 31.1622 90.2693 31.2925C90.5055 31.4229 90.6983 31.5836 90.8494 31.7782V31.4154C90.8494 31.3492 90.8702 31.2944 90.9137 31.2529C90.9553 31.2113 91.0082 31.1886 91.0687 31.1886H91.8038C91.8643 31.1886 91.9153 31.2094 91.9587 31.2529C92.0003 31.2944 92.023 31.3492 92.023 31.4154L92.0324 35.7883C92.0324 36.2229 91.9512 36.599 91.7868 36.9127C91.6243 37.2264 91.3767 37.4702 91.0479 37.6422C90.7191 37.8141 90.2958 37.901 89.7817 37.901H89.778ZM89.7326 34.9171C89.9802 34.9171 90.1805 34.8623 90.3317 34.7546C90.4828 34.645 90.5943 34.5033 90.668 34.3275C90.7398 34.1518 90.7833 33.9741 90.7946 33.7927C90.8003 33.7133 90.8041 33.6151 90.8041 33.4941C90.8041 33.3732 90.8003 33.2768 90.7946 33.2031C90.7833 33.016 90.7398 32.8365 90.668 32.6626C90.5962 32.4907 90.4828 32.3489 90.3317 32.2355C90.1805 32.124 89.9802 32.0673 89.7326 32.0673C89.485 32.0673 89.2847 32.124 89.1335 32.2355C88.9824 32.347 88.8746 32.4944 88.8104 32.6759C88.7461 32.8573 88.7084 33.0576 88.697 33.2749C88.6857 33.4204 88.6857 33.5678 88.697 33.719C88.7084 33.9307 88.7461 34.1291 88.8104 34.3124C88.8746 34.4976 88.9805 34.6431 89.1335 34.7527C89.2847 34.8623 89.485 34.9152 89.7326 34.9152V34.9171Z" fill="white"/>
<path d="M93.4158 30.4081C93.3497 30.4081 93.2968 30.3892 93.2571 30.3496C93.2174 30.3099 93.1985 30.257 93.1985 30.1908V29.537C93.1985 29.4765 93.2174 29.4255 93.2571 29.382C93.2968 29.3404 93.3497 29.3177 93.4158 29.3177H94.2416C94.3078 29.3177 94.3626 29.3385 94.4042 29.382C94.4457 29.4236 94.4684 29.4765 94.4684 29.537V30.1908C94.4684 30.257 94.4476 30.3099 94.4042 30.3496C94.3626 30.3892 94.3078 30.4081 94.2416 30.4081H93.4158ZM93.4517 35.9055C93.3912 35.9055 93.3402 35.8847 93.2967 35.8412C93.2552 35.7996 93.2325 35.7467 93.2325 35.6862V31.404C93.2325 31.3436 93.2533 31.2925 93.2967 31.2491C93.3383 31.2075 93.3912 31.1848 93.4517 31.1848H94.2038C94.27 31.1848 94.3229 31.2056 94.3626 31.2491C94.4023 31.2907 94.4212 31.3436 94.4212 31.404V35.6862C94.4212 35.7467 94.4023 35.7977 94.3626 35.8412C94.3229 35.8828 94.27 35.9055 94.2038 35.9055H93.4517Z" fill="white"/>
<path d="M97.7603 35.9055C97.3975 35.9055 97.0913 35.8412 96.8438 35.7146C96.5962 35.588 96.411 35.399 96.2901 35.1477C96.1691 34.8963 96.1087 34.5845 96.1087 34.2084V32.1486H95.3924C95.332 32.1486 95.2809 32.1278 95.2375 32.0844C95.1959 32.0428 95.1732 31.9899 95.1732 31.9294V31.404C95.1732 31.3436 95.194 31.2925 95.2375 31.2491C95.279 31.2075 95.332 31.1848 95.3924 31.1848H96.1087V29.6787C96.1087 29.6182 96.1276 29.5672 96.1672 29.5237C96.2069 29.4821 96.2598 29.4595 96.326 29.4595H97.0611C97.1216 29.4595 97.1726 29.4803 97.2161 29.5237C97.2576 29.5653 97.2803 29.6182 97.2803 29.6787V31.1848H98.4142C98.4746 31.1848 98.5257 31.2056 98.5691 31.2491C98.6107 31.2906 98.6334 31.3436 98.6334 31.404V31.9294C98.6334 31.9899 98.6126 32.0409 98.5691 32.0844C98.5276 32.1259 98.4746 32.1486 98.4142 32.1486H97.2803V34.1177C97.2803 34.3653 97.3238 34.5599 97.4126 34.6979C97.4995 34.8377 97.6526 34.9058 97.8699 34.9058H98.4954C98.5559 34.9058 98.6069 34.9266 98.6504 34.97C98.692 35.0116 98.7146 35.0645 98.7146 35.125V35.6881C98.7146 35.7486 98.6939 35.7996 98.6504 35.8431C98.6088 35.8847 98.5559 35.9073 98.4954 35.9073H97.7603V35.9055Z" fill="white"/>
<path d="M100.89 35.9962C100.576 35.9962 100.291 35.9339 100.038 35.811C99.7843 35.6863 99.5821 35.52 99.4347 35.3121C99.2873 35.1043 99.2117 34.8699 99.2117 34.6091C99.2117 34.1858 99.3818 33.8495 99.7238 33.5981C100.066 33.3468 100.517 33.1786 101.081 33.0954L102.324 32.914V32.7232C102.324 32.4699 102.26 32.2734 102.133 32.1336C102.007 31.9937 101.789 31.9257 101.479 31.9257C101.262 31.9257 101.084 31.9691 100.948 32.058C100.812 32.1449 100.71 32.2621 100.644 32.4076C100.595 32.4869 100.527 32.5247 100.436 32.5247H99.72C99.6539 32.5247 99.6029 32.5058 99.5707 32.4699C99.5386 32.434 99.5216 32.3849 99.5216 32.3244C99.5273 32.228 99.5669 32.109 99.6388 31.971C99.7106 31.8312 99.8258 31.697 99.9827 31.5666C100.14 31.4362 100.342 31.3266 100.591 31.2359C100.839 31.1452 101.137 31.0999 101.489 31.0999C101.871 31.0999 102.192 31.1471 102.455 31.2397C102.717 31.3342 102.927 31.4589 103.086 31.6158C103.243 31.7726 103.358 31.9578 103.43 32.1695C103.501 32.3811 103.539 32.6041 103.539 32.8403V35.6882C103.539 35.7487 103.518 35.7997 103.475 35.8432C103.433 35.8847 103.38 35.9074 103.32 35.9074H102.585C102.519 35.9074 102.466 35.8866 102.426 35.8432C102.386 35.8016 102.368 35.7487 102.368 35.6882V35.3348C102.288 35.4501 102.182 35.5578 102.05 35.6561C101.918 35.7562 101.755 35.8375 101.564 35.9017C101.374 35.966 101.149 35.9962 100.888 35.9962H100.89ZM101.198 35.1345C101.409 35.1345 101.602 35.0891 101.774 34.9984C101.946 34.9077 102.082 34.7679 102.182 34.577C102.283 34.3862 102.332 34.1461 102.332 33.8551V33.6643L101.425 33.8098C101.067 33.8646 100.801 33.9515 100.627 34.0724C100.453 34.1934 100.364 34.3408 100.364 34.5165C100.364 34.6488 100.406 34.7622 100.487 34.8567C100.569 34.9512 100.672 35.0192 100.801 35.0646C100.928 35.1099 101.062 35.1326 101.2 35.1326L101.198 35.1345Z" fill="white"/>
<path d="M104.926 35.9055C104.866 35.9055 104.815 35.8847 104.771 35.8413C104.73 35.7997 104.707 35.7468 104.707 35.6863V29.6806C104.707 29.6202 104.728 29.5691 104.771 29.5257C104.813 29.4841 104.866 29.4614 104.926 29.4614H105.678C105.739 29.4614 105.79 29.4822 105.833 29.5257C105.875 29.5673 105.898 29.6202 105.898 29.6806V35.6863C105.898 35.7468 105.877 35.7978 105.833 35.8413C105.792 35.8828 105.739 35.9055 105.678 35.9055H104.926Z" fill="white"/>
<path d="M79.2029 44.9764C79.1424 44.9764 79.0914 44.9556 79.0479 44.9121C79.0063 44.8705 78.9836 44.8176 78.9836 44.7572V38.8517C78.9836 38.7855 79.0044 38.7307 79.0479 38.6891C79.0895 38.6475 79.1424 38.6249 79.2029 38.6249H81.6331C82.1055 38.6249 82.5156 38.6986 82.8671 38.8479C83.2186 38.9953 83.4907 39.2201 83.6835 39.5187C83.8762 39.8173 83.9745 40.1915 83.9745 40.6394C83.9745 41.0872 83.8781 41.4671 83.6835 41.76C83.4907 42.0529 83.2186 42.2721 82.8671 42.4176C82.5156 42.5631 82.1055 42.635 81.6331 42.635H80.2819V44.7572C80.2819 44.8176 80.263 44.8686 80.2233 44.9121C80.1836 44.9537 80.1307 44.9764 80.0646 44.9764H79.2029ZM80.2649 41.6296H81.5896C81.9411 41.6296 82.2095 41.5464 82.3966 41.3801C82.5836 41.2138 82.6781 40.9682 82.6781 40.6413C82.6781 40.3389 82.5912 40.0951 82.4155 39.9118C82.2397 39.7266 81.9657 39.6359 81.5896 39.6359H80.2649V41.6315V41.6296Z" fill="white"/>
<path d="M85.0705 44.9763C85.0101 44.9763 84.959 44.9555 84.9156 44.912C84.8721 44.8686 84.8513 44.8176 84.8513 44.7571V40.4843C84.8513 40.4182 84.8721 40.3634 84.9156 40.3218C84.9572 40.2802 85.0101 40.2576 85.0705 40.2576H85.8057C85.8661 40.2576 85.919 40.2783 85.9644 40.3218C86.0097 40.3634 86.0324 40.4182 86.0324 40.4843V40.8566C86.1723 40.6639 86.3518 40.5146 86.5729 40.4125C86.794 40.3105 87.0491 40.2576 87.3401 40.2576H87.7124C87.7786 40.2576 87.8315 40.2783 87.8712 40.3218C87.9109 40.3634 87.9297 40.4163 87.9297 40.4768V41.1306C87.9297 41.1911 87.9109 41.2421 87.8712 41.2856C87.8315 41.3272 87.7786 41.3498 87.7124 41.3498H87.0057C86.7146 41.3498 86.4897 41.4311 86.3291 41.5955C86.1685 41.758 86.0891 41.9829 86.0891 42.2664V44.7609C86.0891 44.8213 86.0683 44.8724 86.0249 44.9158C85.9833 44.9574 85.9285 44.9801 85.8623 44.9801H85.0724L85.0705 44.9763Z" fill="white"/>
<path d="M90.7228 45.067C90.2391 45.067 89.8328 44.982 89.5021 44.8138C89.1714 44.6456 88.9219 44.4056 88.7499 44.0976C88.578 43.7895 88.4797 43.4286 88.4551 43.0185C88.4495 42.9089 88.4457 42.7766 88.4457 42.6198C88.4457 42.4629 88.4495 42.3288 88.4551 42.221C88.4797 41.8034 88.5798 41.4425 88.7594 41.1363C88.937 40.8302 89.1921 40.594 89.521 40.4239C89.8498 40.2538 90.2504 40.1707 90.7228 40.1707C91.1953 40.1707 91.5959 40.2557 91.9247 40.4239C92.2536 40.594 92.5087 40.8302 92.6863 41.1363C92.8639 41.4425 92.966 41.8034 92.9906 42.221C92.9962 42.3306 93 42.4629 93 42.6198C93 42.7766 92.9962 42.9108 92.9906 43.0185C92.966 43.4305 92.8677 43.7895 92.6958 44.0976C92.5238 44.4056 92.2725 44.6456 91.9436 44.8138C91.6148 44.982 91.2066 45.067 90.7228 45.067ZM90.7228 44.1694C91.0441 44.1694 91.2917 44.0673 91.4674 43.8651C91.6432 43.6629 91.7395 43.3644 91.7584 42.9713C91.7641 42.8806 91.7679 42.7634 91.7679 42.6179C91.7679 42.4724 91.7641 42.3552 91.7584 42.2645C91.7395 41.8771 91.6432 41.5804 91.4674 41.3763C91.2917 41.1703 91.0441 41.0683 90.7228 41.0683C90.4016 41.0683 90.154 41.1703 89.9783 41.3763C89.8025 41.5823 89.7062 41.879 89.6873 42.2645C89.6816 42.3552 89.6778 42.4724 89.6778 42.6179C89.6778 42.7634 89.6816 42.8806 89.6873 42.9713C89.7062 43.3644 89.8025 43.6629 89.9783 43.8651C90.154 44.0673 90.4016 44.1694 90.7228 44.1694Z" fill="white"/>
<path d="M94.2226 44.9764C94.1622 44.9764 94.1111 44.9556 94.0677 44.9121C94.0242 44.8687 94.0034 44.8176 94.0034 44.7572V40.475C94.0034 40.4145 94.0242 40.3635 94.0677 40.32C94.1092 40.2784 94.1622 40.2558 94.2226 40.2558H94.9294C94.9899 40.2558 95.0409 40.2765 95.0844 40.32C95.1259 40.3616 95.1486 40.4145 95.1486 40.475V40.783C95.2752 40.6129 95.4472 40.4693 95.6607 40.3521C95.8743 40.235 96.1313 40.1726 96.428 40.1669C97.1178 40.1556 97.5978 40.4239 97.8699 40.9739C98.0078 40.732 98.21 40.5373 98.4727 40.388C98.7354 40.2387 99.0283 40.165 99.3477 40.165C99.667 40.165 99.9486 40.2369 100.206 40.3824C100.463 40.5279 100.665 40.7471 100.814 41.04C100.962 41.3329 101.037 41.7033 101.037 42.1512V44.7553C101.037 44.8158 101.016 44.8668 100.973 44.9102C100.931 44.9518 100.878 44.9745 100.818 44.9745H100.073C100.013 44.9745 99.9619 44.9537 99.9184 44.9102C99.8768 44.8687 99.8541 44.8158 99.8541 44.7553V42.2249C99.8541 41.9528 99.8144 41.7373 99.737 41.5767C99.6595 41.4161 99.5518 41.3027 99.4195 41.2365C99.2872 41.1704 99.1379 41.1364 98.9754 41.1364C98.8412 41.1364 98.7089 41.1704 98.5766 41.2365C98.4444 41.3027 98.3348 41.4161 98.2497 41.5767C98.1647 41.7373 98.1231 41.9528 98.1231 42.2249V44.7553C98.1231 44.8158 98.1023 44.8668 98.0589 44.9102C98.0173 44.9518 97.9644 44.9745 97.9039 44.9745H97.1593C97.0932 44.9745 97.0403 44.9537 97.0006 44.9102C96.9609 44.8687 96.942 44.8158 96.942 44.7553V42.2249C96.942 41.9528 96.9004 41.7373 96.8154 41.5767C96.7303 41.4161 96.6207 41.3027 96.4885 41.2365C96.3562 41.1704 96.2126 41.1364 96.0614 41.1364C95.9215 41.1364 95.7855 41.1704 95.6532 41.2403C95.5209 41.3102 95.4113 41.4236 95.3263 41.5805C95.2412 41.7373 95.1996 41.9528 95.1996 42.2249V44.7553C95.1996 44.8158 95.1789 44.8668 95.1354 44.9102C95.0938 44.9518 95.0409 44.9745 94.9804 44.9745H94.2189L94.2226 44.9764Z" fill="white"/>
<path d="M104.274 45.067C103.791 45.067 103.384 44.982 103.054 44.8138C102.723 44.6437 102.473 44.4056 102.301 44.0976C102.129 43.7895 102.031 43.4286 102.007 43.0185C102.001 42.9089 101.997 42.7766 101.997 42.6198C101.997 42.4629 102.001 42.3288 102.007 42.221C102.031 41.8034 102.131 41.4425 102.311 41.1363C102.489 40.8302 102.744 40.594 103.072 40.4239C103.401 40.2538 103.802 40.1707 104.274 40.1707C104.747 40.1707 105.147 40.2557 105.476 40.4239C105.805 40.594 106.06 40.8302 106.238 41.1363C106.415 41.4425 106.518 41.8034 106.542 42.221C106.548 42.3306 106.552 42.4629 106.552 42.6198C106.552 42.7766 106.548 42.9108 106.542 43.0185C106.518 43.4305 106.419 43.7895 106.247 44.0976C106.075 44.4056 105.824 44.6456 105.495 44.8138C105.164 44.9839 104.758 45.067 104.274 45.067ZM104.274 44.1694C104.596 44.1694 104.843 44.0673 105.019 43.8651C105.195 43.6629 105.291 43.3644 105.31 42.9713C105.316 42.8806 105.319 42.7634 105.319 42.6179C105.319 42.4724 105.316 42.3552 105.31 42.2645C105.291 41.8771 105.195 41.5804 105.019 41.3763C104.843 41.1722 104.596 41.0683 104.274 41.0683C103.953 41.0683 103.706 41.1703 103.53 41.3763C103.354 41.5823 103.258 41.879 103.239 42.2645C103.233 42.3552 103.229 42.4724 103.229 42.6179C103.229 42.7634 103.233 42.8806 103.239 42.9713C103.258 43.3644 103.354 43.6629 103.53 43.8651C103.706 44.0673 103.953 44.1694 104.274 44.1694Z" fill="white"/>
<path d="M109.689 44.9764C109.326 44.9764 109.02 44.9121 108.772 44.7855C108.524 44.6589 108.339 44.4699 108.218 44.2186C108.097 43.9672 108.037 43.6554 108.037 43.2794V41.2195H107.321C107.26 41.2195 107.209 41.1987 107.166 41.1553C107.124 41.1137 107.101 41.0608 107.101 41.0003V40.475C107.101 40.4145 107.122 40.3635 107.166 40.32C107.207 40.2784 107.26 40.2558 107.321 40.2558H108.037V38.7496C108.037 38.6891 108.056 38.6381 108.095 38.5946C108.135 38.5531 108.188 38.5304 108.254 38.5304H108.989C109.05 38.5304 109.101 38.5512 109.144 38.5946C109.186 38.6362 109.209 38.6891 109.209 38.7496V40.2558H110.342C110.403 40.2558 110.454 40.2765 110.497 40.32C110.539 40.3616 110.562 40.4145 110.562 40.475V41.0003C110.562 41.0608 110.541 41.1118 110.497 41.1553C110.456 41.1969 110.403 41.2195 110.342 41.2195H109.209V43.1887C109.209 43.4362 109.252 43.6309 109.341 43.7688C109.428 43.9087 109.581 43.9767 109.798 43.9767H110.424C110.484 43.9767 110.535 43.9975 110.579 44.0409C110.62 44.0825 110.643 44.1354 110.643 44.1959V44.759C110.643 44.8195 110.622 44.8705 110.579 44.914C110.535 44.9575 110.484 44.9783 110.424 44.9783H109.689V44.9764Z" fill="white"/>
<path d="M111.631 39.4791C111.565 39.4791 111.512 39.4602 111.472 39.4205C111.433 39.3808 111.414 39.3279 111.414 39.2617V38.6079C111.414 38.5474 111.433 38.4964 111.472 38.4529C111.512 38.4113 111.565 38.3887 111.631 38.3887H112.457C112.523 38.3887 112.578 38.4095 112.619 38.4529C112.661 38.4945 112.684 38.5474 112.684 38.6079V39.2617C112.684 39.3279 112.663 39.3808 112.619 39.4205C112.576 39.4602 112.523 39.4791 112.457 39.4791H111.631ZM111.667 44.9764C111.607 44.9764 111.556 44.9556 111.512 44.9121C111.469 44.8687 111.448 44.8177 111.448 44.7572V40.475C111.448 40.4145 111.469 40.3635 111.512 40.32C111.554 40.2784 111.607 40.2558 111.667 40.2558H112.419C112.485 40.2558 112.538 40.2765 112.578 40.32C112.618 40.3616 112.637 40.4145 112.637 40.475V44.7572C112.637 44.8177 112.616 44.8687 112.578 44.9121C112.538 44.9537 112.485 44.9764 112.419 44.9764H111.667Z" fill="white"/>
<path d="M115.93 45.067C115.447 45.067 115.04 44.982 114.71 44.8138C114.379 44.6456 114.129 44.4056 113.957 44.0976C113.785 43.7895 113.687 43.4286 113.663 43.0185C113.657 42.9089 113.653 42.7766 113.653 42.6198C113.653 42.4629 113.657 42.3288 113.663 42.221C113.687 41.8034 113.787 41.4425 113.967 41.1363C114.145 40.8302 114.4 40.594 114.728 40.4239C115.057 40.2538 115.458 40.1707 115.93 40.1707C116.403 40.1707 116.803 40.2557 117.132 40.4239C117.461 40.594 117.716 40.8302 117.894 41.1363C118.071 41.4425 118.174 41.8034 118.198 42.221C118.204 42.3306 118.208 42.4629 118.208 42.6198C118.208 42.7766 118.204 42.9108 118.198 43.0185C118.174 43.4305 118.075 43.7895 117.903 44.0976C117.731 44.4056 117.48 44.6456 117.151 44.8138C116.822 44.982 116.414 45.067 115.93 45.067ZM115.93 44.1694C116.252 44.1694 116.499 44.0673 116.675 43.8651C116.851 43.6629 116.947 43.3644 116.966 42.9713C116.972 42.8806 116.975 42.7634 116.975 42.6179C116.975 42.4724 116.972 42.3552 116.966 42.2645C116.947 41.8771 116.851 41.5804 116.675 41.3763C116.499 41.1703 116.252 41.0683 115.93 41.0683C115.609 41.0683 115.362 41.1703 115.186 41.3763C115.01 41.5823 114.914 41.879 114.895 42.2645C114.889 42.3552 114.885 42.4724 114.885 42.6179C114.885 42.7634 114.889 42.8806 114.895 42.9713C114.914 43.3644 115.01 43.6629 115.186 43.8651C115.362 44.0673 115.609 44.1694 115.93 44.1694Z" fill="white"/>
<path d="M119.43 44.9763C119.37 44.9763 119.319 44.9555 119.275 44.9121C119.234 44.8705 119.211 44.8176 119.211 44.7571V40.4749C119.211 40.4144 119.232 40.3634 119.275 40.3199C119.317 40.2784 119.37 40.2557 119.43 40.2557H120.175C120.235 40.2557 120.286 40.2765 120.33 40.3199C120.371 40.3615 120.394 40.4144 120.394 40.4749V40.8472C120.551 40.6544 120.753 40.4919 120.997 40.3615C121.243 40.2311 121.545 40.1669 121.908 40.1669C122.271 40.1669 122.598 40.25 122.87 40.4163C123.142 40.5826 123.352 40.817 123.501 41.1193C123.648 41.4217 123.724 41.7845 123.724 42.2078V44.7571C123.724 44.8176 123.703 44.8686 123.66 44.9121C123.616 44.9555 123.565 44.9763 123.505 44.9763H122.707C122.647 44.9763 122.596 44.9555 122.552 44.9121C122.511 44.8705 122.488 44.8176 122.488 44.7571V42.2626C122.488 41.9111 122.401 41.6371 122.229 41.4368C122.057 41.2365 121.808 41.1382 121.481 41.1382C121.154 41.1382 120.916 41.2384 120.729 41.4368C120.541 41.6371 120.447 41.9111 120.447 42.2626V44.7571C120.447 44.8176 120.426 44.8686 120.383 44.9121C120.339 44.9555 120.288 44.9763 120.228 44.9763H119.43Z" fill="white"/>
</svg>
